<svg fill="none" height="32" viewBox="0 0 32 32" width="32" xmlns="http://www.w3.org/2000/svg"><g stroke="#ffffff" stroke-linecap="round" stroke-linejoin="round" stroke-width="1.5"><path d="m1.86645 4.99066c-.20816-.37248-.29175-.80178-.23853-1.22515s.24046-.81863.53434-1.128.679-.51664 1.09908-.59152c.42009-.07488.85311-.01344 1.23578.17534l25.35198 12.87867c.1645.0837.3026.2112.3991.3685s.1476.3383.1476.5228c0 .1846-.0511.3655-.1476.5228s-.2346.2849-.3991.3686l-25.35198 12.896c-.38267.1887-.81569.2502-1.23578.1753-.42008-.0749-.8052-.2822-1.09908-.5915-.29388-.3094-.48112-.7046-.53434-1.128s.03037-.8527.23853-1.2252l6.744-11.0186z"/><path d="m30.396 15.9907h-21.792"/></g></svg>